<svg xmlns="http://www.w3.org/2000/svg" viewBox="0 0 322 102"><path fill="#edeae1" stroke="#edeae1" d="M138.843 28.383c-.189 2.961-.082 9.149.238 13.75.535 7.707.594 7.322.75-4.883L140 24h7l.102 13.25c.057 7.288.394 11.9.75 10.25.357-1.65.507-7.837.334-13.75L147.871 23h-8.686l-.342 5.383m114.375 8.367.219 13.75.31-13.25.311-13.25h6.884l.311 13.25.31 13.25.219-13.75L262 23h-9l.218 13.75M45.553 27.528c-.834 1.996-2.609 6.631-3.944 10.301-1.335 3.669-2.907 7.908-3.493 9.421-.587 1.513-.736 2.75-.333 2.75.404 0 2.751-5.625 5.217-12.5L47.483 25l4.508.009 4.509.009 4.491 12.491C66.587 53.076 68 53.578 68 40V30h3.417c1.879 0 3.567.453 3.752 1.007.219.656 1.406.602 3.407-.153 7.21-2.721 9.508-.16 10.448 11.646l.638 8 .154-7.5c.234-11.368-3.578-16.038-10.852-13.293-1.638.619-2.964.711-2.964.206 0-.502-2.025-.913-4.5-.913H67l-.111 7.75c-.061 4.263-.017 8.875.098 10.25.343 4.132-.782 1.913-5.37-10.589L57.246 24.5l-5.088-.301c-5.004-.296-5.114-.241-6.605 3.329M157.51 25.25c-.235.688-2.281 6.352-4.547 12.588-2.266 6.236-3.928 11.53-3.694 11.764.233.234 2.461-5.093 4.95-11.838l4.526-12.264 4.472-.298 4.471-.299 4.46 12.233c5.701 15.635 6.852 16.13 6.852 2.947V30h3.417c1.879 0 3.588.515 3.797 1.143.286.858.915.858 2.518 0 7.118-3.809 10.621-.56 11.346 10.523l.577 8.834.173-8.295c.242-11.682-1.029-12.895-13.644-13.014L178 29.104l-.066 10.198-.066 10.198-4.684-12.737-4.684-12.737-5.281-.013c-3.341-.008-5.439.446-5.709 1.237m-63.332 6.274C89.419 35.617 91.094 50 96.329 50c.561 0 .004-1.081-1.237-2.402-7.078-7.535-.971-20.256 8.084-16.838 1.592.601 2.824.668 2.824.153 0-.502 1.575-.913 3.5-.913h3.5v11.777c0 12.576-.886 15.427-5.357 17.231-1.54.622-1.682.883-.504.929 5.636.218 7.733-6.682 7.033-23.147l-.327-7.71-8.495.07c-7.367.061-8.85.376-11.172 2.374m25.491-.479c-5.08 3.997-5.314 13.989-.408 17.426 3.502 2.452 3.826 1.77.662-1.394C113.462 40.616 117.252 30 126.02 30c5.394 0 7.839 1.418 9.565 5.548C137.762 40.76 137.538 41 130.5 41c-5.081 0-6.5.324-6.5 1.485 0 1.217 1.079 1.372 6 .857 6.901-.721 7.547.179 2.923 4.069-3.332 2.804-2.744 3.553.826 1.052 2.578-1.806 4.579-8.308 3.67-11.928-1.688-6.726-12.089-9.942-17.75-5.49m85.509.479C200.419 35.617 202.094 50 207.329 50c.561 0 .004-1.081-1.237-2.402-7.078-7.535-.971-20.256 8.084-16.838 1.592.601 2.824.668 2.824.153 0-.502 1.575-.913 3.5-.913h3.5v11.777c0 12.576-.886 15.427-5.357 17.231-1.778.718-1.837.876-.348.929.988.034 2.9-1.042 4.25-2.392C224.9 55.191 225 54.56 225 42.085V29.078l-8.572.071c-7.448.062-8.924.374-11.25 2.375m21.967 5.816c.343 8.169 2.12 12.66 5.01 12.66.465 0-.055-.9-1.155-2-1.667-1.667-2-3.333-2-10v-8h7v6.433c0 5.544.275 6.519 1.991 7.064 3.262 1.036 4.009-.279 4.009-7.056V30h7v10c0 6.225.391 10 1.035 10 .665 0 .933-3.669.75-10.25L250.5 29.5l-4.703-.303-4.703-.303-.297 6.723c-.413 9.34-2.601 9.851-3 .701L237.5 29.5l-5.355-.306-5.355-.306.355 8.452m48.244-7.395c10.518 1.458 13.604 15.29 4.254 19.063-1.246.503-1.515.878-.643.897 3.743.079 7.011-4.881 6.978-10.589-.037-6.342-4.714-10.426-11.662-10.182-3.608.126-3.549.17 1.073.811m-9.08 2.305c-4.195 4.626-3.322 14.067 1.541 16.67 3.341 1.788 3.478 1.227.345-1.409-4.829-4.064-4.802-11.996.056-15.735 1.237-.952 1.765-1.742 1.173-1.754-.591-.012-1.993.99-3.115 2.228m-216.04 4.225c-.595 1.939-.705 3.525-.245 3.525.46 0 1.015-1.013 1.233-2.25.396-2.249.396-2.249 1.593.25 1.177 2.46 1.187 2.452.602-.5-.904-4.57-1.988-4.919-3.183-1.025m111.759-1.049c-1.487 3.912-1.197 5.494.472 2.574 1.041-1.821 1.439-2.041 1.465-.809.019.93.467 1.958.995 2.284.552.341.488-.803-.149-2.691-1.49-4.417-1.6-4.47-2.783-1.358M76.2 37.2c-.713.713-1.13 3.654-1.027 7.25l.172 6.05.578-6.5c.501-5.641.841-6.5 2.577-6.5 1.756 0 2.015.708 2.123 5.79.16 7.496 1.377 8.786 1.377 1.458 0-8.33-2.181-11.167-5.8-7.548m24.467-.533c-.96.959-.824 6.333.16 6.333.455 0 .622-1.394.372-3.098-.384-2.614-.162-3.039 1.423-2.722 1.282.256 1.867 1.216 1.844 3.023-.018 1.456.319 2.43.75 2.163.431-.266.784-1.267.784-2.225 0-3.011-3.51-5.298-5.333-3.474m23.333.392c0 .582.45.781 1 .441s1-.816 1-1.059-.45-.441-1-.441-1 .477-1 1.059m3.5-.059c.34.55.816 1 1.059 1s.441-.45.441-1-.477-1-1.059-1-.781.45-.441 1m60.144-.233c-.299.485.446.848 1.656.807 1.99-.067 2.258.547 2.803 6.426l.603 6.5-.103-7c-.094-6.369-.297-7.028-2.259-7.307-1.185-.169-2.4.089-2.7.574m24.023-.1c-.367.366-.66 1.154-.652 1.75.009.596.413.455.899-.313 1.458-2.301 4.392-.486 3.845 2.378-.259 1.352-.085 2.22.385 1.929.471-.291.856-1.312.856-2.27 0-3.011-3.51-5.298-5.333-3.474m61 0c-1.205 1.204-.697 5.063.833 6.333 3.036 2.519 6.148-2.952 3.3-5.8-1.328-1.328-3.109-1.558-4.133-.533m.695 1.833c-.7 1.824.215 4.5 1.539 4.5 1.24 0 2.42-3.672 1.605-4.991-.913-1.477-2.483-1.231-3.144.491M211 42c0 .55.477 1 1.059 1s.781-.45.441-1-.816-1-1.059-1-.441.45-.441 1m-24.608 3.573c-.365 1.454-.155 3.064.481 3.7.836.836 1.127.171 1.127-2.573 0-4.309-.688-4.791-1.608-1.127M46.666 48.25c-.515 2.047-.448 2.092.744.5 1.693-2.261 8.59-2.461 8.59-.25 0 .825.408 1.5.906 1.5.499 0 .671-.9.384-2-.822-3.141-9.823-2.93-10.624.25m111.679-.707c-.326.849-.311 1.824.031 2.167.343.343.624-.127.624-1.043 0-2.353 7.515-2.374 8.417-.024.346.904.855 1.418 1.13 1.143.275-.275.216-1.239-.13-2.143-.862-2.245-9.217-2.328-10.072-.1m81.287.936c-1.797 1.36-1.787 1.408.25 1.255 1.165-.088 2.118-.739 2.118-1.447 0-1.572-.045-1.568-2.368.192m-136.079.436c-.311.503 0 1.143.691 1.423.953.387.894.787-.244 1.662-1.333 1.024-1.333 1.107 0 .748 1.683-.454 2.704-4.748 1.129-4.748-.556 0-1.265.412-1.576.915m111 0c-.311.503 0 1.143.691 1.423.953.387.894.787-.244 1.662-1.333 1.024-1.333 1.107 0 .748 1.683-.454 2.704-4.748 1.129-4.748-.556 0-1.265.412-1.576.915M94.75 50.716c-5.235.793-.813 9.501 4.646 9.148 2.002-.13 1.996-.157-.126-.567-2.221-.429-6.27-4.667-6.27-6.562 0-.582 1.798-.792 4.333-.507 3.224.364 4.334.141 4.334-.87 0-1.338-1.438-1.472-6.917-.642m30.519-.023c.973.254 2.323.237 3-.037.677-.274-.119-.481-1.769-.461-1.65.02-2.204.244-1.231.498m80.981.03c-5.715.71-1.917 9.489 3.955 9.141l2.295-.136-2.23-.431c-2.221-.429-6.27-4.667-6.27-6.562 0-.582 1.798-.792 4.333-.507 3.224.364 4.334.141 4.334-.87 0-.747-.713-1.286-1.584-1.198-.87.088-3.046.342-4.833.563m28.563-.04c.721.289 1.584.253 1.916-.079.332-.332-.258-.568-1.312-.525-1.165.048-1.402.285-.604.604m38.456.01c.973.254 2.323.237 3-.037.677-.274-.119-.481-1.769-.461-1.65.02-2.204.244-1.231.498M39 77.099v13.1l9.078-.35c9.035-.347 9.093-.366 12.5-4.084C63.496 82.579 64 81.311 64 77.15 64 68.186 58.28 64 46.032 64H39v13.099m31.5-6.55c-6.511 3.336-7.76 11.345-2.577 16.528 5.692 5.692 19.646 2.441 17.572-4.094-.36-1.132-.172-1.983.438-1.983 1.527 0 1.317-2.67-.514-6.529-2.436-5.135-9.122-6.892-14.919-3.922m20.688-.738c-2.73.196-4.194.746-3.991 1.5.177.654 1.647 5.127 3.268 9.939L93.412 90h11.198l3.195-9.531C111.81 68.522 111.865 69 106.475 69c-3.857 0-4.659.354-5.438 2.403C99.83 74.578 98 75.65 98 73.181c0-2.785-1.899-3.724-6.812-3.37M49.25 72.662C46.644 73.714 48.27 82 51.081 82c3.506 0 5.09-5.686 2.348-8.429-1.64-1.639-2.113-1.742-4.179-.909M74.5 77c-.34.55.335 1 1.5 1s1.84-.45 1.5-1c-.34-.55-1.015-1-1.5-1-.485 0-1.16.45-1.5 1m1.238 4.692c-.969.253-1.492.897-1.161 1.432.377.611 1.033.623 1.762.032.639-.517 2.061-1.162 3.161-1.432l2-.492h-2c-1.1 0-2.793.207-3.762.46" fill-rule="evenodd"/><path fill="#fbfbfb" stroke="#fbfbfb" d="M139.392 36c0 7.425.157 10.462.35 6.75.192-3.712.192-9.788 0-13.5-.193-3.712-.35-.675-.35 6.75m8.003.5c.001 7.7.158 10.718.348 6.706.191-4.011.189-10.311-.002-14-.192-3.688-.348-.406-.346 7.294M253.32 29c0 3.575.182 5.038.403 3.25.222-1.788.222-4.712 0-6.5-.221-1.788-.403-.325-.403 3.25M51.481 24.714c2.739.228 5.361.948 5.826 1.6.587.824.722.728.441-.314-.292-1.082-1.915-1.528-5.827-1.6l-5.421-.1 4.981.414M159 24.563c3.508.774 9.794.912 9.357.205-.261-.422-2.811-.716-5.666-.652-2.855.064-4.516.265-3.691.447m-91.571 5.762c-.28.729-.359 5.566-.176 10.75l.332 9.425.207-10.19L68 30.121l3.75-.393 3.75-.392-3.781-.168c-2.348-.104-3.975.334-4.29 1.157m12.821-.636c.963.252 2.537.252 3.5 0 .963-.251.175-.457-1.75-.457s-2.713.206-1.75.457m24.893.201c-.946.6-1.021 1.067-.25 1.544.609.376 1.107.233 1.107-.317 0-.551 1.912-1.174 4.25-1.385l4.25-.383-4-.159c-2.2-.088-4.611.227-5.357.7m18.67-.207c.721.289 1.584.253 1.916-.079.332-.332-.258-.568-1.312-.525-1.165.048-1.402.285-.604.604m54.001 9.819c-.173 5.776.024 10.501.436 10.5.412-.001.75-4.502.75-10.002V30h4c2.2 0 4 .477 4 1.059s.498.751 1.107.375c1.841-1.138-1.186-2.402-5.793-2.419L178.129 29l-.315 10.502m13.436-9.813c.963.252 2.537.252 3.5 0 .963-.251.175-.457-1.75-.457s-2.713.206-1.75.457m24.293.242c-.317.512-.118 1.213.441 1.559.559.345 1.016.177 1.016-.373 0-.551 1.912-1.174 4.25-1.385l4.25-.383-4.691-.174c-2.58-.096-4.95.244-5.266.756m11.863.453c-.316.824-.364 2.313-.107 3.308.307 1.183.509.857.585-.942.106-2.517.451-2.75 4.068-2.75h3.953l.382 6.25.382 6.25-.085-6.5-.084-6.5-4.259-.308c-3.072-.222-4.42.11-4.835 1.192M241 35.45c0 5.088-.37 6.666-1.75 7.47-.963.561-1.278 1.033-.7 1.05 2.299.066 3.45-2.641 3.45-8.113v-5.742l4.25-.383 4.25-.383-4.75-.174L241 29v6.45m30.813-5.767c.721.289 1.584.253 1.916-.079.332-.332-.258-.568-1.312-.525-1.165.048-1.402.285-.604.604m5 0c.721.289 1.584.253 1.916-.079.332-.332-.258-.568-1.312-.525-1.165.048-1.402.285-.604.604M93.872 31.75c-1.243 1.586-1.208 1.621.378.378C95.916 30.821 96.445 30 95.622 30c-.207 0-.995.788-1.75 1.75m24.753.112c-4.258 4.705-3.746 13.702.956 16.783 1.365.894 2.726 1.381 3.026 1.082.299-.3-.318-.818-1.372-1.152-1.796-.57-3.353-2.862-4.584-6.75-.85-2.684 1.236-8.632 3.61-10.296 1.201-.841 1.704-1.529 1.116-1.529-.587 0-1.825.838-2.752 1.862m14.998.138c1.167 1.375 2.369 3.175 2.671 4 .469 1.284.559 1.274.627-.076.043-.866-1.159-2.666-2.671-4L131.5 29.5l2.123 2.5m70.914-.041C201.233 35.61 202.03 49 205.551 49c.275 0-.236-1.425-1.137-3.166-2.011-3.888-1.431-11.053 1.123-13.875.975-1.077 1.548-1.959 1.273-1.959-.275 0-1.298.882-2.273 1.959m77.793.643c3.421 3.422 3.68 9.74.572 14.013l-2.097 2.885 2.597-2.806c4.246-4.585 2.978-14.183-2.132-16.144-.887-.34-.41.583 1.06 2.052M43.228 33.699c-.551 1.541-2.2 5.95-3.664 9.8-1.464 3.849-2.221 6.549-1.682 6 1.179-1.203 7.264-17.686 6.727-18.223-.208-.208-.829.882-1.381 2.423m222.16-.168c-.913 1.392-1.477 2.713-1.255 2.936.223.222 1.163-.917 2.089-2.532 2.064-3.595 1.451-3.892-.834-.404m-110.764.008c-.965 2.514-.681 3.163.498 1.136.584-1.004.851-2.036.593-2.293-.257-.258-.749.263-1.091 1.157M51 34.386c0 .212.672 1.674 1.494 3.25 1.559 2.99 1.903 2.447.876-1.386-.49-1.826-2.37-3.305-2.37-1.864m110.975 2.179c-1.393 3.665-1.142 4.352.525 1.435 1.041-1.821 1.439-2.041 1.465-.809.019.93.467 1.958.995 2.284.569.352.529-.643-.098-2.441-1.288-3.695-1.638-3.752-2.887-.469M89.343 42.5c.003 4.4.179 6.076.39 3.724.212-2.352.209-5.952-.006-8s-.388-.124-.384 4.276m111 0c.003 4.4.179 6.076.39 3.724.212-2.352.209-5.952-.006-8s-.388-.124-.384 4.276M76.655 36.75c-.255.413.575.75 1.845.75s2.1-.337 1.845-.75c-.254-.413-1.085-.75-1.845-.75s-1.591.337-1.845.75m26.81.6c1.217.891 1.655 2.084 1.284 3.502-.309 1.183-.154 1.899.344 1.59 2.128-1.315.15-6.442-2.484-6.442-.545 0-.16.608.856 1.35m84.144-.526c-.28.453.481.791 1.691.75 1.992-.067 2.255.54 2.777 6.426l.578 6.5.172-6.05c.17-5.958-.852-8.45-3.468-8.45-.683 0-1.47.371-1.75.824m26.856.526c1.217.891 1.655 2.084 1.284 3.502-.309 1.183-.154 1.899.344 1.59 2.128-1.315.15-6.442-2.484-6.442-.545 0-.16.608.856 1.35m58.735-.15c-1.355 1.355-1.603 4.433-.416 5.166.431.267.768-.719.75-2.191-.025-1.938.445-2.637 1.705-2.538.957.075 1.493-.262 1.191-.75-.75-1.214-1.805-1.112-3.23.313M50.079 38.583c.048 1.165.285 1.402.604.605.289-.722.253-1.585-.079-1.917-.332-.332-.568.258-.525 1.312M91.125 39.8c-.114 3.001 2.201 9.2 3.436 9.2.28 0-.044-1.013-.721-2.25-.677-1.237-1.536-4.05-1.91-6.25-.658-3.87-.684-3.893-.805-.7m45.954-.55c-.067 1.481-1.089 1.75-6.662 1.75-4.827 0-6.47.333-6.158 1.25.293.86 2.189 1.142 6.083.902 6.487-.398 7.092.558 2.908 4.6-2.615 2.527-2.628 2.58-.25 1.094 2.486-1.555 5.465-8.19 4.607-10.261-.247-.597-.485-.297-.528.665M81.3 44c0 3.025.187 4.263.416 2.75.229-1.513.229-3.987 0-5.5S81.3 40.975 81.3 44m69.811-.889c-.616 1.767-.945 3.388-.731 3.602.214.214.893-1.057 1.509-2.824.616-1.767.945-3.388.731-3.602-.214-.214-.893 1.057-1.509 2.824M227.141 41c0 .825.386 2.4.859 3.5.542 1.261.859 1.445.859.5 0-.825-.386-2.4-.859-3.5-.542-1.261-.859-1.445-.859-.5M63.573 44c.368 1.375 1.086 3.175 1.596 4 .644 1.042.723.737.258-1-.368-1.375-1.086-3.175-1.596-4-.644-1.042-.723-.737-.258 1m186.699 2c0 2.475.195 3.487.434 2.25.238-1.237.238-3.263 0-4.5-.239-1.237-.434-.225-.434 2.25m13.807-2.941c-.043.857.621 2.432 1.476 3.5 1.53 1.91 1.541 1.909.635-.059a61.867 61.867 0 0 1-1.476-3.5c-.48-1.296-.567-1.288-.635.059M175.031 44.5c0 .55.436 1.675.969 2.5.533.825.969 1.05.969.5s-.436-1.675-.969-2.5c-.533-.825-.969-1.05-.969-.5M47.492 47.014c-.381.615-.422 1.389-.092 1.719.33.33.6.075.6-.566 0-1.821 7.752-1.492 8.325.353.331 1.066.425.991.315-.25-.184-2.076-7.98-3.147-9.148-1.256m110.853.529c-.326.849-.311 1.824.031 2.167.343.343.624-.172.624-1.144 0-1.481.729-1.709 4.5-1.409 2.475.196 4.5.017 4.5-.4 0-1.549-9.041-.813-9.655.786m81.793.79c-.837 1.01-.746 1.334.378 1.334.816 0 1.484-.6 1.484-1.334 0-.733-.17-1.333-.378-1.333-.207 0-.875.6-1.484 1.333M104 49.011c-1.156.739-1.189.962-.143.974.878.01 1.122.633.691 1.765-.502 1.318-.382 1.468.487.606 1.725-1.711.848-4.548-1.035-3.345m111 0c-1.156.739-1.189.962-.143.974.878.01 1.122.633.691 1.765-.502 1.318-.382 1.468.487.606 1.725-1.711.848-4.548-1.035-3.345m53.733.113c.679.684 1.486.991 1.793.683.308-.308-.247-.867-1.233-1.243-1.425-.542-1.54-.428-.56.56m-170.65 1.159c.23.156 1.13.823 2 1.484 1.273.966 1.584.91 1.584-.283 0-.817-.899-1.484-2-1.484-1.1 0-1.813.127-1.584.283m27.186.41c.973.254 2.323.237 3-.037.677-.274-.119-.481-1.769-.461-1.65.02-2.204.244-1.231.498m83.814-.41c.23.156 1.215.894 2.19 1.641 1.543 1.183 1.691 1.146 1.143-.283-.347-.902-1.332-1.641-2.19-1.641-.857 0-1.372.127-1.143.283m25.73.4c.721.289 1.584.253 1.916-.079.332-.332-.258-.568-1.312-.525-1.165.048-1.402.285-.604.604m38.456.01c.973.254 2.323.237 3-.037.677-.274-.119-.481-1.769-.461-1.65.02-2.204.244-1.231.498M92.116 52.561C92.009 54.464 95.248 59 96.713 59c.35 0-.298-1.013-1.439-2.25s-2.292-3.15-2.558-4.25c-.472-1.949-.487-1.948-.6.061m20.204 2.189c-1.036 3.321-1.007 3.528.255 1.809 1.194-1.626 2.021-5.559 1.17-5.559-.141 0-.782 1.688-1.425 3.75m90.796-2.582c-.187 2.684.965 4.807 3.252 5.995l2.132 1.108-2.15-2.385c-1.183-1.312-2.368-3.286-2.634-4.386-.356-1.471-.515-1.559-.6-.332m20.204 2.582c-1.036 3.321-1.007 3.528.255 1.809 1.194-1.626 2.021-5.559 1.17-5.559-.141 0-.782 1.688-1.425 3.75M108 59c-.901.582-1.025.975-.309.985.655.008 1.469-.435 1.809-.985.767-1.242.421-1.242-1.5 0m-68.126 5.86c-.206.606-.235 6.511-.065 13.121L40.118 90h7.293c5.935 0 7.926-.425 10.691-2.283 7.154-4.806 7.543-15.985.724-20.841-3.553-2.53-18.248-4.093-18.952-2.016M71.5 70.347c-5.625 2.524-7.638 7.994-5.141 13.969 2.646 6.333 10.887 7.873 16.564 3.095 4.413-3.713 3.879-4.593-2.609-4.293-3.717.173-5.824-.149-6.084-.927-.277-.833 1.412-1.191 5.628-1.191 6.842 0 7.182-.271 5.968-4.745-1.502-5.537-8.616-8.471-14.326-5.908m18.893 9.35L93.68 89.5h10.57l3.34-9.5c1.838-5.225 3.357-9.612 3.376-9.75.019-.138-1.993-.25-4.47-.25-4.493 0-4.507.011-5.707 4.5-1.5 5.609-2.26 5.665-3.397.25-.883-4.207-.939-4.253-5.589-4.553l-4.696-.302 3.286 9.802M48 77.5c0 5.961.871 6.679 4.777 3.943C56.918 78.543 55.202 72 50.3 72c-2.121 0-2.3.428-2.3 5.5m26-.5c0 .55.927 1 2.059 1 1.132 0 1.781-.45 1.441-1-.34-.55-1.266-1-2.059-1-.793 0-1.441.45-1.441 1" fill-rule="evenodd"/><path fill="#f7f8f7" stroke="#f7f8f7" d="M147.252 26.5c.011 2.2.216 2.982.455 1.738.239-1.244.23-3.044-.02-4s-.446.062-.435 2.262m106.02.5c0 2.475.195 3.488.434 2.25.238-1.238.238-3.262 0-4.5-.239-1.238-.434-.225-.434 2.25m-159.4 4.75c-1.243 1.586-1.208 1.621.378.378C95.916 30.821 96.445 30 95.622 30c-.207 0-.995.788-1.75 1.75m83.944 8.252c-.174 5.501.022 10.001.434 10 .412-.001.75-4.502.75-10.002 0-12.927-.775-12.925-1.184.002m27.056-8.252c-1.243 1.586-1.208 1.621.378.378.963-.755 1.75-1.543 1.75-1.75 0-.823-.821-.294-2.128 1.372M215.5 31c.34.55.816 1 1.059 1s.441-.45.441-1-.477-1-1.059-1-.781.45-.441 1m25.82 5c0 3.575.182 5.038.403 3.25.222-1.788.222-4.712 0-6.5-.221-1.788-.403-.325-.403 3.25m-123.448-3.25c-1.243 1.586-1.208 1.621.378.378 1.666-1.307 2.195-2.128 1.372-2.128-.207 0-.995.788-1.75 1.75m44.692 2.957c-.542 1.425-.428 1.54.56.56.684-.679.991-1.486.683-1.793-.308-.308-.867.247-1.243 1.233M51.5 36c.34.55.816 1 1.059 1s.441-.45.441-1-.477-1-1.059-1-.781.45-.441 1m150.752 3.5c.011 2.2.216 2.982.455 1.738.239-1.244.23-3.044-.02-4s-.446.062-.435 2.262m-97.521-.42c.354 1.352.807 1.806 1.057 1.057.24-.722-.038-1.787-.62-2.369-.742-.742-.872-.351-.437 1.312m111 0c.354 1.352.807 1.806 1.057 1.057.24-.722-.038-1.787-.62-2.369-.742-.742-.872-.351-.437 1.312m56.348.503c.048 1.165.285 1.402.604.605.289-.722.253-1.585-.079-1.917-.332-.332-.568.258-.525 1.312M192.31 44.5c.005 3.3.192 4.529.415 2.732.222-1.797.218-4.497-.01-6-.229-1.503-.411-.032-.405 3.268M116 43.441c0 .793.408 1.693.907 2.001.498.309.671-.34.383-1.441-.611-2.335-1.29-2.63-1.29-.56m-10.921 6.142c.048 1.165.285 1.402.604.605.289-.722.253-1.585-.079-1.917-.332-.332-.568.258-.525 1.312m111 0c.048 1.165.285 1.402.604.605.289-.722.253-1.585-.079-1.917-.332-.332-.568.258-.525 1.312M92 53.941c0 .518.445 1.216.989 1.552.566.35.734-.051.393-.941C92.717 52.82 92 52.503 92 53.941m111 0c0 .518.445 1.216.989 1.552.566.35.734-.051.393-.941-.665-1.732-1.382-2.049-1.382-.611M40 77.5V90h6.532c10.964 0 16.621-4.006 16.826-11.917C63.6 68.808 59.011 65 47.596 65H40v12.5m32.255-7.381c-4.167 1.202-6.363 4.612-6.437 9.997-.142 10.246 14.403 13.813 19.267 4.725 1.064-1.988.893-2.044-5.152-1.698-4.377.25-6.38-.018-6.676-.893-.311-.916 1.334-1.25 6.16-1.25C85.99 81 86 80.996 86 78.146 86 75.052 82.05 70 79.63 70c-.807 0-2.066-.184-2.798-.409-.733-.225-2.792.013-4.577.528M88 70.748c0 .411 1.394 4.933 3.099 10.048l3.098 9.302 5.067-.299 5.066-.299 3.264-9.75 3.264-9.75h-4.382c-4.212 0-4.422.146-5.423 3.75-.573 2.063-1.044 4.313-1.047 5-.003.688-.456 1.25-1.006 1.25s-1.003-.562-1.006-1.25c-.025-5.741-2.103-8.75-6.041-8.75-2.174 0-3.953.336-3.953.748M48 77.5c0 5.852.934 6.676 5.066 4.465C57.182 79.762 55.028 72 50.3 72c-2.121 0-2.3.428-2.3 5.5m25.5-.5c-.351.567.49 1 1.941 1C76.848 78 78 77.55 78 77s-.873-1-1.941-1-2.219.45-2.559 1" fill-rule="evenodd"/><path fill="#2996ef" stroke="#2996ef" d="M241.286 34.5c.008 2.75.202 3.756.432 2.236.229-1.52.223-3.77-.014-5-.237-1.23-.425.014-.418 2.764m-39.091 5c.02 1.65.244 2.204.498 1.231.254-.973.237-2.323-.037-3-.274-.677-.481.119-.461 1.769M178.272 46c0 2.475.195 3.487.434 2.25.238-1.237.238-3.263 0-4.5-.239-1.237-.434-.225-.434 2.25M40 77.503v12.709l8.087-.367C58.551 89.369 63 85.547 63 77.03c0-8.516-3.543-11.436-14.418-11.883L40 64.795v12.708m28.589-4.426c-7.555 8.978 1.919 20.848 12.339 15.46C83.36 87.279 85 85.179 85 83.321c0-.284-2.546-.36-5.658-.169-3.894.24-5.79-.042-6.083-.902-.312-.917 1.331-1.25 6.158-1.25C85.825 81 86 80.931 86 78.423c0-7.719-12.249-11.481-17.411-5.346m19.668-1.827c.26.688 1.751 5.188 3.314 10L94.412 90h9.423l3.083-9.252C110.723 69.325 110.773 70 106.125 70h-3.875l-1.318 5.94c-1.562 7.041-2.151 6.982-3.921-.393L95.681 70h-3.948c-2.742 0-3.803.381-3.476 1.25m-40.59.417c-.367.366-.667 3.066-.667 6 0 5.194.074 5.333 2.845 5.333C53.144 83 56 80.295 56 77.171c0-3.936-5.963-7.875-8.333-5.504M73 77c0 .55 1.377 1 3.059 1 1.785 0 2.802-.417 2.441-1-.34-.55-1.716-1-3.059-1-1.343 0-2.441.45-2.441 1" fill-rule="evenodd"/></svg>